<?xml version="1.0" encoding="UTF-8"?>
<!-- Generator: Adobe Illustrator 23.0.3, SVG Export Plug-In . SVG Version: 6.00 Build 0)  -->
<svg version="1.1" id="Ebene_1"
	xmlns="http://www.w3.org/2000/svg"
	xmlns:xlink="http://www.w3.org/1999/xlink" x="0px" y="0px" viewBox="0 0 141.73 59.53" width="141.73" height="59.53" style="enable-background:new 0 0 141.73 59.53;" xml:space="preserve">
	<style type="text/css">
	.st0{fill:#0B2659;}
	</style>
	<path class="st0" d="M38.57,57.48c0,0.89-0.7,1.57-1.67,1.57H34.3v-5.48h2.35c1.07,0,1.7,0.61,1.7,1.43c0,0.61-0.33,0.93-0.64,1.14  C38.18,56.35,38.57,56.82,38.57,57.48z M35.28,55.89h1.29c0.29,0,0.81-0.15,0.81-0.87c0-0.71-0.51-0.85-0.82-0.85h-1.27V55.89z   M37.59,57.47c0-0.77-0.58-0.98-0.89-0.98h-1.42v1.96h1.42C37,58.45,37.59,58.24,37.59,57.47z M44.33,57.41H42.1l-0.62,1.64h-0.64  l2.08-5.48h1.02l2.08,5.48h-1.11L44.33,57.41z M44.12,56.81l-0.87-2.44l-0.93,2.44H44.12z M48.61,53.57h2  c1.55,0,2.74,1.25,2.74,2.74c0,1.52-1.25,2.74-2.74,2.74h-2V53.57z M50.71,58.45c1.07,0,1.67-1,1.67-2.15  c0-1.19-0.64-2.13-1.67-2.13h-1.12v4.28H50.71z M59.96,58.45v0.6h-3.82v-5.48h3.8v0.6h-2.82v1.8h2.43v0.6h-2.43v1.89H59.96z   M63.64,53.57l3.1,4.2v-4.2h0.6v5.48h-0.84l-3.12-4.24v4.24h-0.6v-5.48H63.64z M70.88,56.92c-0.31,0-0.58-0.26-0.58-0.58  c0-0.31,0.26-0.58,0.58-0.58c0.32,0,0.58,0.26,0.58,0.58C71.46,56.66,71.21,56.92,70.88,56.92z M78.69,57.48  c0,0.89-0.7,1.57-1.67,1.57h-2.59v-5.48h2.35c1.07,0,1.7,0.61,1.7,1.43c0,0.61-0.33,0.93-0.64,1.14  C78.3,56.35,78.69,56.82,78.69,57.48z M75.4,55.89h1.29c0.29,0,0.81-0.15,0.81-0.87c0-0.71-0.51-0.85-0.82-0.85H75.4V55.89z   M77.71,57.47c0-0.77-0.58-0.98-0.89-0.98H75.4v1.96h1.42C77.13,58.45,77.71,58.24,77.71,57.47z M84.46,57.41h-2.23l-0.62,1.64  h-0.64l2.08-5.48h1.02l2.08,5.48h-1.11L84.46,57.41z M84.25,56.81l-0.87-2.44l-0.93,2.44H84.25z M88.74,53.57h2  c1.55,0,2.74,1.25,2.74,2.74c0,1.52-1.25,2.74-2.74,2.74h-2V53.57z M90.83,58.45c1.07,0,1.67-1,1.67-2.15  c0-1.19-0.64-2.13-1.67-2.13h-1.12v4.28H90.83z M100.09,58.45v0.6h-3.82v-5.48h3.8v0.6h-2.82v1.8h2.43v0.6h-2.43v1.89H100.09z   M103.77,53.57l3.1,4.2v-4.2h0.6v5.48h-0.84l-3.12-4.24v4.24h-0.6v-5.48H103.77z M1.23,45.11l0.9-0.68c0.98,1.74,2.1,2.36,3.9,2.36  c2.25,0,2.99-0.98,2.99-2.22c0-1.9-2.07-2.12-4.19-2.77c-1.27-0.39-3.25-1.13-3.25-3.53c0-2.31,1.59-3.56,4.38-3.56  c2.27,0,3.84,0.83,4.82,2.6L9.85,38c-0.94-1.29-1.88-1.81-3.45-1.81c-1.77,0-2.46,0.72-2.46,1.75c0,1.61,1.59,1.88,2.86,2.18  c2.79,0.66,4.58,1.66,4.58,4.08c0,2.94-2.51,4.06-5.13,4.06C4.02,48.27,2.04,47.45,1.23,45.11z M22.31,44.13h-5.37l-1.5,3.95h-1.53  l5-13.18h2.46l5,13.18h-2.66L22.31,44.13z M21.81,42.69l-2.09-5.87l-2.23,5.87H21.81z M31.93,34.9L39.39,45V34.9h1.44v13.18H38.8  l-7.52-10.19v10.19h-1.44V34.9H31.93z M44.57,45.11l0.9-0.68c0.98,1.74,2.11,2.36,3.9,2.36c2.25,0,2.99-0.98,2.99-2.22  c0-1.9-2.07-2.12-4.19-2.77c-1.27-0.39-3.25-1.13-3.25-3.53c0-2.31,1.59-3.56,4.38-3.56c2.27,0,3.84,0.83,4.82,2.6L53.19,38  c-0.94-1.29-1.88-1.81-3.45-1.81c-1.77,0-2.46,0.72-2.46,1.75c0,1.61,1.59,1.88,2.86,2.18c2.79,0.66,4.58,1.66,4.58,4.08  c0,2.94-2.51,4.06-5.13,4.06C47.36,48.27,45.38,47.45,44.57,45.11z M63.99,45.11l0.9-0.68c0.98,1.74,2.11,2.36,3.9,2.36  c2.25,0,2.99-0.98,2.99-2.22c0-1.9-2.07-2.12-4.19-2.77c-1.27-0.39-3.25-1.13-3.25-3.53c0-2.31,1.59-3.56,4.38-3.56  c2.27,0,3.84,0.83,4.82,2.6L72.61,38c-0.94-1.29-1.88-1.81-3.45-1.81c-1.77,0-2.46,0.72-2.46,1.75c0,1.61,1.59,1.88,2.86,2.18  c2.79,0.66,4.58,1.66,4.58,4.08c0,2.94-2.51,4.06-5.13,4.06C66.78,48.27,64.8,47.45,63.99,45.11z M90.33,41.49  c0,3.75-2.95,6.78-6.61,6.78c-3.64,0-6.59-3.03-6.59-6.78c0-3.75,2.95-6.78,6.59-6.78C87.38,34.71,90.33,37.74,90.33,41.49z   M87.95,41.49c0-3.01-1.59-5.3-4.23-5.3c-2.62,0-4.23,2.29-4.23,5.3c0,3.01,1.61,5.3,4.23,5.3C86.36,46.79,87.95,44.5,87.95,41.49z   M104.88,34.9v8.59c0,2.64-2.42,4.78-5.41,4.78s-5.41-2.14-5.41-4.78V34.9h2.35v8.59c0,1.87,1.57,3.31,3.53,3.31  c1.96,0,3.51-1.44,3.51-3.31l0.02-8.59H104.88z M108.62,41.43c0-4.04,3.21-6.72,6.68-6.72c2.22,0,4.14,1.11,5.06,2.86l-0.98,0.57  c-1.11-1.33-2.16-1.96-3.73-1.96c-2.84,0-4.63,2.03-4.63,5.17c0,3.1,1.77,5.43,4.71,5.43c1.44,0,2.71-0.57,3.88-1.98l0.98,0.57  c-0.9,1.79-2.97,2.88-5.34,2.88C111.17,48.27,108.62,45.02,108.62,41.43z M126.6,34.9v13.18h-2.35V34.9H126.6z M130.35,45.11  l0.9-0.68c0.98,1.74,2.1,2.36,3.9,2.36c2.25,0,2.99-0.98,2.99-2.22c0-1.9-2.07-2.12-4.19-2.77c-1.27-0.39-3.25-1.13-3.25-3.53  c0-2.31,1.59-3.56,4.38-3.56c2.27,0,3.84,0.83,4.82,2.6L138.97,38c-0.94-1.29-1.88-1.81-3.45-1.81c-1.77,0-2.46,0.72-2.46,1.75  c0,1.61,1.59,1.88,2.86,2.18c2.79,0.66,4.58,1.66,4.58,4.08c0,2.94-2.51,4.06-5.13,4.06C133.13,48.27,131.16,47.45,130.35,45.11z   M63.73,4.72c0-1.85,1.5-3.35,3.35-3.35c1.85,0,3.35,1.5,3.35,3.35h0.89c0-1.85,1.5-3.35,3.35-3.35c1.85,0,3.35,1.5,3.35,3.35v6.8  h0.89v-6.8c0-2.34-1.9-4.24-4.24-4.24c-1.66,0-3.1,0.97-3.8,2.36c-0.69-1.4-2.13-2.36-3.8-2.36c-2.34,0-4.24,1.9-4.24,4.24v6.8h0.89  V4.72z M88.94,21.4c0-0.5-0.41-0.91-0.91-0.91H53.73c-0.5,0-0.91,0.41-0.91,0.91v0.21h1.88c4.76,0.01,5.52,6.51,12.97,6.51h6.42  c7.52,0,8.21-6.5,12.97-6.51h1.88V21.4z M66.93,19.19h7.9c0,0,2.66-5.25,5.95-5.25h1.94v-0.21c0-0.5-0.41-0.91-0.91-0.91H59.95  c-0.5,0-0.91,0.41-0.91,0.91v0.21h1.94C64.26,13.94,66.93,19.19,66.93,19.19z M66.32,6.91c-0.5,0-0.91,0.41-0.91,0.91v0.21h1.24  c1.55,0,2.09,3.49,2.09,3.49h4.29c0,0,0.56-3.49,2.09-3.49h1.24V7.83c0-0.5-0.41-0.91-0.91-0.91H66.32z"/>
</svg>